<svg xmlns="http://www.w3.org/2000/svg" viewBox="0 0 1080 1080"><style>.st0{display:none}.st1{display:inline}.st2{fill:#ffa600}.st2,.st3,.st4,.st5,.st6,.st7{fill-rule:evenodd;clip-rule:evenodd}.st3{fill:#fefefe}.st4{fill:#cdfada}.st5{fill:#ffd06b}.st6{fill:#fff0c7}.st7{fill:#56d66e}.st10,.st11,.st12,.st13,.st14,.st8,.st9{fill-rule:evenodd;clip-rule:evenodd}.st8{fill:#00843c}.st9{fill:#c41265}.st10{fill:#f57a9d}.st11{fill:#cce4ff}.st12{fill:#6697dd}.st13{fill:#2b4d99}.st14{fill:#ffdede}.st15{fill:#fff}.st16{fill-rule:evenodd;clip-rule:evenodd;fill:none}</style><g id="Color" class="st0"><g class="st1"><path class="st2" d="M367.2 453.6l86.4-86.4 86.4 86.4-86.4 86.4-86.4-86.4z"/><path class="st3" d="M108 540l86.4-86.4 86.4 86.4-86.4 86.4L108 540z"/><path class="st4" d="M194.4 453.6l86.4-86.4 86.4 86.4-86.4 86.4-86.4-86.4z"/><path class="st5" d="M280.8 367.2l86.4-86.4 86.4 86.4-86.4 86.4-86.4-86.4z"/><path class="st6" d="M367.2 280.8l86.4-86.4 86.4 86.4-86.4 86.4-86.4-86.4z"/><path class="st3" d="M453.6 194.4L540 108l86.4 86.4-86.4 86.4-86.4-86.4z"/><path class="st4" d="M194.4 626.4l86.4-86.4 86.4 86.4-86.4 86.4-86.4-86.4z"/><path class="st7" d="M280.8 540l86.4-86.4 86.4 86.4-86.4 86.4-86.4-86.4z"/><path class="st5" d="M453.6 367.2l86.4-86.4 86.4 86.4-86.4 86.4-86.4-86.4z"/><path class="st6" d="M540 280.8l86.4-86.4 86.4 86.4-86.4 86.4-86.4-86.4z"/><path class="st7" d="M280.8 712.8l86.4-86.4 86.4 86.4-86.4 86.4-86.4-86.4z"/><path class="st8" d="M367.2 626.4l86.4-86.4 86.4 86.4-86.4 86.4-86.4-86.4z"/><path class="st9" d="M540 453.6l86.4-86.4 86.4 86.4-86.4 86.4-86.4-86.4z"/><path class="st10" d="M626.4 367.2l86.4-86.4 86.4 86.4-86.4 86.4-86.4-86.4z"/><path class="st11" d="M367.2 799.2l86.4-86.4 86.4 86.4-86.4 86.4-86.4-86.4z"/><path class="st12" d="M453.6 712.8l86.4-86.4 86.4 86.4-86.4 86.4-86.4-86.4z"/><path class="st13" d="M540 626.4l86.4-86.4 86.4 86.4-86.4 86.4-86.4-86.4z"/><path class="st10" d="M626.4 540l86.4-86.4 86.4 86.4-86.4 86.4-86.4-86.4z"/><path class="st14" d="M712.8 453.6l86.4-86.4 86.4 86.4-86.4 86.4-86.4-86.4z"/><path class="st3" d="M453.6 885.6l86.4-86.4 86.4 86.4L540 972l-86.4-86.4z"/><path class="st11" d="M540 799.2l86.4-86.4 86.4 86.4-86.4 86.4-86.4-86.4z"/><path class="st12" d="M626.4 712.8l86.4-86.4 86.4 86.4-86.4 86.4-86.4-86.4z"/><path class="st14" d="M712.8 626.4l86.4-86.4 86.4 86.4-86.4 86.4-86.4-86.4z"/><path class="st3" d="M799.2 540l86.4-86.4L972 540l-86.4 86.4-86.4-86.4z"/><path class="st6" d="M194.4 280.8l86.4-86.4 86.4 86.4-86.4 86.4-86.4-86.4z"/><path class="st14" d="M712.8 280.8l86.4-86.4 86.4 86.4-86.4 86.4-86.4-86.4z"/><path class="st11" d="M712.8 799.2l86.4-86.4 86.4 86.4-86.4 86.4-86.4-86.4z"/><path class="st4" d="M194.4 799.2l86.4-86.4 86.4 86.4-86.4 86.4-86.4-86.4z"/><path class="st15" d="M812.89 394.97v-64.26l-184.35-86.58v-.26H445.5v.37l-169.85 80.71h-.86v12.49h-.07v57.53h22.02v-48H445.5v86.01l-170 80.81h-.86v.54h-.07v69.47h22.02v-47.99H445.5V944.1h22.02v-.25l1.47.67 68.29-149.23 69.18 149.73 22.07-.01V535.82h162.18v47.99h22.02v-64.25l-184.2-86.87v-85.72h162.33v48h22.03zM606.51 265.89v59.06H467.53v-59.06h138.98zm-279.54 59.06l118.53-56.33v56.33H326.97zm279.54 188.84H467.53v-60.54c32.68-.12 106.9.19 138.99.07v60.47zm-279.71 0l118.71-56.43v56.43H326.8zM467.53 894.8V644.33l57.58 124.62-57.58 125.85zm81.82-125.89l57.16-124.93v248.64l-57.16-123.71zm57.16-177.86l-69.33 151.52-69.65-150.74v-56.01h138.99v55.23zm142.36-77.26H628.54v-56.75l120.33 56.75zM606.51 431.3c-32.04.12-106.11-.2-138.99-.07v-84.26h138.99v84.33zm22.03-162.85l120.29 56.49H628.54v-56.49z"/></g></g><g id="White" class="st0"><g class="st1"><path class="st2" d="M324 432l108-108 108 108-108 108-108-108z"/><path class="st16" d="M0 540l108-108 108 108-108 108L0 540z"/><path class="st4" d="M108 432l108-108 108 108-108 108-108-108z"/><path class="st5" d="M216 324l108-108 108 108-108 108-108-108z"/><path class="st6" d="M324 216l108-108 108 108-108 108-108-108z"/><path class="st16" d="M432 108L540 0l108 108-108 108-108-108z"/><path class="st4" d="M108 648l108-108 108 108-108 108-108-108z"/><path class="st7" d="M216 540l108-108 108 108-108 108-108-108z"/><path class="st5" d="M432 324l108-108 108 108-108 108-108-108z"/><path class="st6" d="M540 216l108-108 108 108-108 108-108-108z"/><path class="st7" d="M216 756l108-108 108 108-108 108-108-108z"/><path class="st8" d="M324 648l108-108 108 108-108 108-108-108z"/><path class="st9" d="M540 432l108-108 108 108-108 108-108-108z"/><path class="st10" d="M648 324l108-108 108 108-108 108-108-108z"/><path class="st11" d="M324 864l108-108 108 108-108 108-108-108z"/><path class="st12" d="M432 756l108-108 108 108-108 108-108-108z"/><path class="st13" d="M540 648l108-108 108 108-108 108-108-108z"/><path class="st10" d="M648 540l108-108 108 108-108 108-108-108z"/><path class="st14" d="M756 432l108-108 108 108-108 108-108-108z"/><path class="st16" d="M432 972l108-108 108 108-108 108-108-108z"/><path class="st11" d="M540 864l108-108 108 108-108 108-108-108z"/><path class="st12" d="M648 756l108-108 108 108-108 108-108-108z"/><path class="st14" d="M756 648l108-108 108 108-108 108-108-108z"/><path class="st16" d="M864 540l108-108 108 108-108 108-108-108z"/><path class="st6" d="M108 216l108-108 108 108-108 108-108-108z"/><path class="st14" d="M756 216l108-108 108 108-108 108-108-108z"/><path class="st11" d="M756 864l108-108 108 108-108 108-108-108z"/><path class="st4" d="M108 864l108-108 108 108-108 108-108-108z"/><path class="st15" d="M881.12 358.71v-80.32L650.67 170.16v-.32H421.88v.46L209.57 271.19h-1.08v15.62h-.09v71.91h27.53v-60h185.95v107.51l-212.5 101.02h-1.08v.68h-.09v86.84h27.53v-59.99h186.14v510.35h27.53v-.31l1.83.84 85.36-186.54 86.48 187.16 27.59-.01v-511.5h202.72v59.99h27.53v-80.31L650.67 405.86V298.71h202.91v60h27.54zM623.14 197.36v73.82H449.41v-73.82h173.73zm-349.42 73.83l148.16-70.41v70.41H273.72zm349.42 236.05H449.41v-75.67c40.85-.16 133.63.24 173.73.09v75.58zm-349.64 0l148.39-70.54v70.54H273.5zM449.41 983.5V670.41l71.98 155.78-71.98 157.31zm102.28-157.36l71.45-156.16v310.8l-71.45-154.64zm71.45-222.32l-86.67 189.4-87.07-188.43v-70.02h173.73v69.05zm177.95-96.58H650.67V436.3l150.42 70.94zM623.14 404.13c-40.05.15-132.64-.25-173.73-.09V298.71h173.73v105.42zm27.53-203.56l150.36 70.62H650.67v-70.62z"/></g></g><g id="Color_1_" class="st0"><g class="st1"><path class="st2" d="M324 432l108-108 108 108-108 108-108-108z"/><path class="st16" d="M0 540l108-108 108 108-108 108L0 540z"/><path class="st4" d="M108 432l108-108 108 108-108 108-108-108z"/><path class="st5" d="M216 324l108-108 108 108-108 108-108-108z"/><path class="st6" d="M324 216l108-108 108 108-108 108-108-108z"/><path class="st16" d="M432 108L540 0l108 108-108 108-108-108z"/><path class="st4" d="M108 648l108-108 108 108-108 108-108-108z"/><path class="st7" d="M216 540l108-108 108 108-108 108-108-108z"/><path class="st5" d="M432 324l108-108 108 108-108 108-108-108z"/><path class="st6" d="M540 216l108-108 108 108-108 108-108-108z"/><path class="st7" d="M216 756l108-108 108 108-108 108-108-108z"/><path class="st8" d="M324 648l108-108 108 108-108 108-108-108z"/><path class="st9" d="M540 432l108-108 108 108-108 108-108-108z"/><path class="st10" d="M648 324l108-108 108 108-108 108-108-108z"/><path class="st11" d="M324 864l108-108 108 108-108 108-108-108z"/><path class="st12" d="M432 756l108-108 108 108-108 108-108-108z"/><path class="st13" d="M540 648l108-108 108 108-108 108-108-108z"/><path class="st10" d="M648 540l108-108 108 108-108 108-108-108z"/><path class="st14" d="M756 432l108-108 108 108-108 108-108-108z"/><path class="st16" d="M432 972l108-108 108 108-108 108-108-108z"/><path class="st11" d="M540 864l108-108 108 108-108 108-108-108z"/><path class="st12" d="M648 756l108-108 108 108-108 108-108-108z"/><path class="st14" d="M756 648l108-108 108 108-108 108-108-108z"/><path class="st16" d="M864 540l108-108 108 108-108 108-108-108z"/><path class="st6" d="M108 216l108-108 108 108-108 108-108-108z"/><path class="st14" d="M756 216l108-108 108 108-108 108-108-108z"/><path class="st11" d="M756 864l108-108 108 108-108 108-108-108z"/><path class="st4" d="M108 864l108-108 108 108-108 108-108-108z"/><path class="st15" d="M881.12 358.71v-80.32L650.67 170.16v-.32H421.88v.46L209.57 271.19h-1.08v15.62h-.09v71.91h27.53v-60h185.95v107.51l-212.5 101.02h-1.08v.68h-.09v86.84h27.53v-59.99h186.14v510.35h27.53v-.31l1.83.84 85.36-186.54 86.48 187.16 27.59-.01v-511.5h202.72v59.99h27.53v-80.31L650.67 405.86V298.71h202.91v60h27.54zM623.14 197.36v73.82H449.41v-73.82h173.73zm-349.42 73.83l148.16-70.41v70.41H273.72zm349.42 236.05H449.41v-75.67c40.85-.16 133.63.24 173.73.09v75.58zm-349.64 0l148.39-70.54v70.54H273.5zM449.41 983.5V670.41l71.98 155.78-71.98 157.31zm102.28-157.36l71.45-156.16v310.8l-71.45-154.64zm71.45-222.32l-86.67 189.4-87.07-188.43v-70.02h173.73v69.05zm177.95-96.58H650.67V436.3l150.42 70.94zM623.14 404.13c-40.05.15-132.64-.25-173.73-.09V298.71h173.73v105.42zm27.53-203.56l150.36 70.62H650.67v-70.62z"/></g></g><g id="Full"><path class="st2" d="M324 432l108-108 108 108-108 108-108-108z"/><path class="st3" d="M0 540l108-108 108 108-108 108L0 540z"/><path class="st4" d="M108 432l108-108 108 108-108 108-108-108z"/><path class="st5" d="M216 324l108-108 108 108-108 108-108-108z"/><path class="st6" d="M324 216l108-108 108 108-108 108-108-108z"/><path class="st3" d="M432 108L540 0l108 108-108 108-108-108z"/><path class="st4" d="M108 648l108-108 108 108-108 108-108-108z"/><path class="st7" d="M216 540l108-108 108 108-108 108-108-108z"/><path class="st5" d="M432 324l108-108 108 108-108 108-108-108z"/><path class="st6" d="M540 216l108-108 108 108-108 108-108-108z"/><path class="st7" d="M216 756l108-108 108 108-108 108-108-108z"/><path class="st8" d="M324 648l108-108 108 108-108 108-108-108z"/><path class="st9" d="M540 432l108-108 108 108-108 108-108-108z"/><path class="st10" d="M648 324l108-108 108 108-108 108-108-108z"/><path class="st11" d="M324 864l108-108 108 108-108 108-108-108z"/><path class="st12" d="M432 756l108-108 108 108-108 108-108-108z"/><path class="st13" d="M540 648l108-108 108 108-108 108-108-108z"/><path class="st10" d="M648 540l108-108 108 108-108 108-108-108z"/><path class="st14" d="M756 432l108-108 108 108-108 108-108-108z"/><path class="st3" d="M432 972l108-108 108 108-108 108-108-108z"/><path class="st11" d="M540 864l108-108 108 108-108 108-108-108z"/><path class="st12" d="M648 756l108-108 108 108-108 108-108-108z"/><path class="st14" d="M756 648l108-108 108 108-108 108-108-108z"/><path class="st3" d="M864 540l108-108 108 108-108 108-108-108z"/><path class="st6" d="M108 216l108-108 108 108-108 108-108-108z"/><path class="st14" d="M756 216l108-108 108 108-108 108-108-108z"/><path class="st11" d="M756 864l108-108 108 108-108 108-108-108z"/><path class="st4" d="M108 864l108-108 108 108-108 108-108-108z"/><path d="M881.12 358.71v-80.32L650.67 170.16v-.32H421.88v.46L209.57 271.19h-1.08v15.62h-.09v71.91h27.53v-60h185.95v107.51l-212.5 101.02h-1.08v.68h-.09v86.84h27.53v-59.99h186.14v510.35h27.53v-.31l1.83.84 85.36-186.54 86.48 187.16 27.59-.01v-511.5h202.72v59.99h27.53v-80.31L650.67 405.86V298.71h202.91v60h27.54zM623.14 197.36v73.82H449.41v-73.82h173.73zm-349.42 73.83l148.16-70.41v70.41H273.72zm349.42 236.05H449.41v-75.67c40.85-.16 133.63.24 173.73.09v75.58zm-349.64 0l148.39-70.54v70.54H273.5zM449.41 983.5V670.41l71.98 155.78-71.98 157.31zm102.28-157.36l71.45-156.16v310.8l-71.45-154.64zm71.45-222.32l-86.67 189.4-87.07-188.43v-70.02h173.73v69.05zm177.95-96.58H650.67V436.3l150.42 70.94zM623.14 404.13c-40.05.15-132.64-.25-173.73-.09V298.71h173.73v105.42zm27.53-203.56l150.36 70.62H650.67v-70.62z"/></g></svg>