<svg version="1.1" id="Layer_1" xmlns="http://www.w3.org/2000/svg" x="0" y="0" viewBox="0 0 1920 984" xml:space="preserve"><style>.st1{fill-rule:evenodd;clip-rule:evenodd;fill:#fefefe}.st2{fill:#cdfada}.st10,.st12,.st2{fill-rule:evenodd;clip-rule:evenodd}.st3{fill:#ffd06b}.st3,.st4,.st5,.st8,.st9{fill-rule:evenodd;clip-rule:evenodd}.st4{fill:#fff0c7}.st5{fill:#56d66e}.st8{fill:#f57a9d}.st9{fill:#cce4ff}.st10{fill:#6697dd}.st12{fill:#ffdede}</style><g id="Color_1_"><path fill-rule="evenodd" clip-rule="evenodd" fill="#ffa600" d="M295.06 393.6l98.35-98.4 98.36 98.4-98.36 98.4-98.35-98.4z"/><path class="st1" d="M0 492l98.36-98.4 98.35 98.4-98.35 98.4L0 492z"/><path class="st2" d="M98.36 393.6l98.35-98.4 98.35 98.4-98.35 98.4-98.35-98.4z"/><path class="st3" d="M196.71 295.2l98.35-98.4 98.35 98.4-98.35 98.4-98.35-98.4z"/><path class="st4" d="M295.06 196.8l98.35-98.4 98.36 98.4-98.36 98.4-98.35-98.4z"/><path class="st1" d="M393.41 98.4L491.77 0l98.35 98.4-98.35 98.4-98.36-98.4z"/><path class="st2" d="M98.35 590.4l98.36-98.4 98.35 98.4-98.35 98.4-98.36-98.4z"/><path class="st5" d="M196.71 492l98.35-98.4 98.35 98.4-98.35 98.4-98.35-98.4z"/><path class="st3" d="M393.41 295.2l98.36-98.4 98.35 98.4-98.35 98.4-98.36-98.4z"/><path class="st4" d="M491.77 196.8l98.35-98.4 98.35 98.4-98.35 98.4-98.35-98.4z"/><path class="st5" d="M196.71 688.8l98.35-98.4 98.35 98.4-98.35 98.4-98.35-98.4z"/><path fill-rule="evenodd" clip-rule="evenodd" fill="#00843c" d="M295.06 590.4l98.35-98.4 98.36 98.4-98.36 98.4-98.35-98.4z"/><path fill-rule="evenodd" clip-rule="evenodd" fill="#c41265" d="M491.77 393.6l98.35-98.4 98.35 98.4-98.35 98.4-98.35-98.4z"/><path class="st8" d="M590.12 295.2l98.35-98.4 98.36 98.4-98.36 98.4-98.35-98.4z"/><path class="st9" d="M295.06 787.2l98.35-98.4 98.36 98.4-98.36 98.4-98.35-98.4z"/><path class="st10" d="M393.41 688.8l98.36-98.4 98.35 98.4-98.35 98.4-98.36-98.4z"/><path fill-rule="evenodd" clip-rule="evenodd" fill="#2b4d99" d="M491.77 590.4l98.35-98.4 98.35 98.4-98.35 98.4-98.35-98.4z"/><path class="st8" d="M590.12 492l98.35-98.4 98.36 98.4-98.36 98.4-98.35-98.4z"/><path class="st12" d="M688.47 393.6l98.36-98.4 98.35 98.4-98.35 98.4-98.36-98.4z"/><path class="st1" d="M393.41 885.6l98.36-98.4 98.35 98.4-98.35 98.4-98.36-98.4z"/><path class="st9" d="M491.77 787.2l98.35-98.4 98.35 98.4-98.35 98.4-98.35-98.4z"/><path class="st10" d="M590.12 688.8l98.35-98.4 98.36 98.4-98.36 98.4-98.35-98.4z"/><path class="st12" d="M688.47 590.4l98.36-98.4 98.35 98.4-98.35 98.4-98.36-98.4z"/><path class="st1" d="M786.83 492l98.35-98.4 98.35 98.4-98.35 98.4-98.35-98.4z"/><path class="st4" d="M98.36 196.8l98.35-98.4 98.35 98.4-98.35 98.4-98.35-98.4z"/><path class="st12" d="M688.47 196.8l98.36-98.4 98.35 98.4-98.35 98.4-98.36-98.4z"/><path class="st9" d="M688.47 787.2l98.36-98.4 98.35 98.4-98.35 98.4-98.36-98.4z"/><path class="st2" d="M98.35 787.2l98.36-98.4 98.35 98.4-98.35 98.4-98.36-98.4z"/><path d="M802.41 326.82v-73.18l-209.86-98.61v-.3H384.2v.42l-193.35 91.92h-.98v14.23h-.08v65.52h25.07v-54.66H384.2v97.95l-193.52 92.04h-.98v.62h-.08v79.12h25.07v-54.66H384.2v464.98h25.07v-.28l1.67.76 77.73-169.96 78.76 170.52 25.13-.01v-466h184.61v54.66h25.07v-73.17l-209.68-98.94v-97.63h184.79v54.66h25.06zm-234.93-147v67.26H409.27v-67.26h158.21zm-318.21 67.26l134.93-64.15v64.15H249.27zm318.21 215.07H409.27V393.2c37.2-.14 121.69.22 158.22.08v68.87zm-318.41 0l135.13-64.27v64.27H249.07zm160.2 433.93V610.82l65.55 141.93-65.55 143.33zm93.14-143.38l65.07-142.28V893.6l-65.07-140.9zm65.07-202.56l-78.92 172.57-79.29-171.68v-63.79h158.22v62.9zm162.06-87.99H592.55v-64.64l136.99 64.64zm-162.06-93.94c-36.47.14-120.79-.22-158.22-.08v-95.96h158.22v96.04zm25.07-185.47l136.93 64.34H592.55v-64.34zm551.86 283.25h-95.73V436.6c0-13.72-1.23-22.45-3.68-26.21-2.44-3.76-6.53-5.64-12.24-5.64-6.21 0-10.9 2.54-14.08 7.6-3.18 5.07-4.77 12.74-4.77 23.04 0 13.23 1.78 23.2 5.36 29.9 3.42 6.7 13.13 14.78 29.13 24.24 45.88 27.25 74.78 49.6 86.69 67.07 11.91 17.47 17.87 45.64 17.87 84.5 0 28.25-3.31 49.07-9.92 62.46-6.61 13.39-19.38 24.62-38.31 33.68-18.93 9.07-40.97 13.6-66.1 13.6-27.58 0-51.13-5.23-70.63-15.68-19.5-10.45-32.28-23.76-38.31-39.92-6.04-16.17-9.06-39.11-9.06-68.83v-25.96h95.72v48.25c0 14.86 1.35 24.41 4.04 28.66s7.47 6.37 14.32 6.37c6.85 0 11.95-2.69 15.3-8.08 3.34-5.39 5.02-13.39 5.02-24 0-23.35-3.18-38.62-9.54-45.8-6.53-7.18-22.61-19.18-48.23-36-25.62-16.98-42.6-29.31-50.92-36.99-8.33-7.67-15.22-18.28-20.69-31.84-5.47-13.55-8.2-30.86-8.2-51.93 0-30.37 3.87-52.58 11.63-66.62 7.75-14.04 20.27-25.02 37.58-32.94 17.3-7.92 38.19-11.88 62.67-11.88 26.77 0 49.58 4.33 68.43 12.98 18.85 8.66 31.34 19.56 37.46 32.7 6.12 13.15 9.19 35.48 9.19 66.99v15.67zm40.88-120.02h171.86v79.36h-68.8v75.2h64.39v75.44h-64.39v87.2H1364v79.36h-178.72V345.97zm208.35 0h171.86v79.36h-68.8v75.2h64.39v75.44h-64.39v87.2h75.65v79.36h-178.72V345.97zm526.36 0v396.55h-90.1l-.12-267.71-35.87 267.71h-63.9l-37.82-261.59-.12 261.59h-90.09V345.97h133.37c3.95 23.84 8.03 51.94 12.23 84.31l14.64 100.87 23.69-185.17H1920z"/></g></svg>