<svg xmlns="http://www.w3.org/2000/svg" viewBox="0 0 1920 790"><path d="M434.64 245.38H251.31v-56.19c0-26.23-2.35-42.92-7.04-50.11-4.68-7.18-12.5-10.77-23.44-10.77-11.89 0-20.87 4.85-26.96 14.54-6.09 9.68-9.14 24.37-9.14 44.05 0 25.3 3.42 44.36 10.27 57.17 6.54 12.81 25.14 28.26 55.78 46.35C338.66 342.5 394 385.25 416.82 418.65c22.81 33.41 34.23 87.26 34.23 161.56 0 54.01-6.33 93.82-19 119.41-12.65 25.6-37.12 47.06-73.38 64.39C322.42 781.34 280.21 790 232.08 790c-52.83 0-97.92-9.99-135.27-29.97C59.46 740.05 35 714.61 23.44 683.7 11.87 652.79 6.09 608.93 6.09 552.11v-49.64h183.32v92.25c0 28.41 2.58 46.68 7.74 54.79 5.16 8.12 14.3 12.17 27.43 12.17 13.12 0 22.89-5.15 29.3-15.45 6.4-10.3 9.61-25.6 9.61-45.89 0-44.64-6.09-73.83-18.28-87.57-12.5-13.73-43.3-36.68-92.37-68.84-49.07-32.47-81.58-56.03-97.52-70.71-15.95-14.67-29.15-34.96-39.62-60.88-10.47-25.9-15.7-59-15.7-99.27C0 155 7.42 112.55 22.27 85.7 37.11 58.85 61.1 37.86 94.23 22.71 127.37 7.57 167.38 0 214.26 0c51.26 0 94.95 8.28 131.05 24.82 36.1 16.55 60.01 37.39 71.73 62.52 11.73 25.13 17.59 67.83 17.59 128.08v29.96zm78.29-229.46h329.14v151.73H710.32v143.77h123.31v144.23H710.32v166.71H855.2v151.73H512.93V15.92zm399.01 0h329.14v151.73h-131.76v143.77h123.31v144.23h-123.31v166.71h144.88v151.73H911.94V15.92zm1008.06 0v758.16h-172.55l-.23-511.84-68.7 511.84h-122.37l-72.44-500.13-.24 500.13h-172.54V15.92h255.42c7.57 45.59 15.38 99.31 23.43 161.18l28.03 192.85 45.36-354.03H1920z" fill="#fff"/></svg>